# xmcd
#
# Track frame offsets:
# 150
# 16516
# 35871
# 51017
# 73146
# 89017
# 103901
# 119952
# 137017
# 154710
# 167929
# 181275
# 195700
# 215393
# 231009
# 247847
# 263279
# 282144
# 300732
# 319259
#
# Disc length: 4459 seconds
#
#
# Revision: 1
# Processed by: cddbd v1.5.1PL2 Copyright (c) Steve Scherf et al.
# Submitted via: FreeRIP 2.945 
#
DISCID=1f116914
DTITLE=Banda Calypso - As 20 Mais
DYEAR=2005
DGENRE=Forró
TTITLE0=Pra Todo Mundo Ver
TTITLE1=Pra Te Esquecer
TTITLE2=Você Me Enganou
TTITLE3=Primeiro Amor
TTITLE4=Se Quebrou
TTITLE5=Dois Corações
TTITLE6=Anjo
TTITLE7=Love You Mona Amour
TTITLE8=A Lua Me Traiu
TTITLE9=Conto de Fadas
TTITLE10=Lambada Complicada
TTITLE11=Lágrimas de Amor
TTITLE12=Homem Perfeito
TTITLE13=Ainda Te Amo
TTITLE14=Fala Pra Mim
TTITLE15=Tudo de Novo
TTITLE16=Disse Adeus
TTITLE17=Fora de Controle
TTITLE18=Imagino
TTITLE19=Beija Flor
EXTD=Som Livre - AA0105001
EXTT0=
EXTT1=
EXTT2=
EXTT3=
EXTT4=
EXTT5=
EXTT6=
EXTT7=
EXTT8=
EXTT9=
EXTT10=
EXTT11=
EXTT12=
EXTT13=
EXTT14=
EXTT15=
EXTT16=
EXTT17=
EXTT18=
EXTT19=
PLAYORDER=
